# xmcd
#
# Track frame offsets:
#	150
#	13352
#	32876
#	49110
#	69157
#	85498
#	102741
#	120601
#	139205
#	155497
#	180001
#	202067
#	218560
#	232262
#	248913
#	279424
#
# Disc length: 3734 seconds
#
# Revision: 1
# Processed by: cddbd v1.5.2PL0 Copyright (c) Steve Scherf et al.
# Submitted via: EasyCDDAExtractor 10.0.3.1
#
DISCID=ea0e9410
DTITLE=Various Artist - Sc8952
DYEAR=2006
DGENRE=Country
TTITLE0=Gretchen Wilson - Gretchen Wilson - I Don't Feel Like Loving You Today
TTITLE1=Brad Paisley and Dolly Parton - Brad Paisley and Dolly Parton - When I Get
TTITLE1=Where I'm Going
TTITLE2=George Strait and Lee Ann Womack - George Strait and Lee Ann Womack - Good
TTITLE2=News, Bad News
TTITLE3=Rockie Lynne - Rockie Lynne - Lipstick
TTITLE4=Seven - Seven - Drunk Chicks
TTITLE5=Faith Hill - Faith Hill - Lucky One, The
TTITLE6=Carrie Underwood - Carrie Underwood - Jesus, Take The Wheel
TTITLE7=George Strait - George Strait - Somewhere Down In Texas
TTITLE8=Getchen Wilson and Merle Haggard - Gretchen Wilson and Merle Haggard - Pol
TTITLE8=iyically Uncorrect
TTITLE9=Big and Rich - Big and Rich - Deadwood Mountain
TTITLE10=Darryl Worley - Darryl Worley - Whistle Dixie
TTITLE11=Sara Evans - Sara Evans - Cheatin'
TTITLE12=Jace Everett - Jace Everett - Bad Things
TTITLE13=Patty Loveless - Patty Loveless - Keep Your Distance
TTITLE14=Martina Mcbride - Martina Mcbride - Help Me Make It Through The Night
TTITLE15=Data Track - Data Track
EXTD=
EXTT0=
EXTT1=
EXTT2=
EXTT3=
EXTT4=
EXTT5=
EXTT6=
EXTT7=
EXTT8=
EXTT9=
EXTT10=
EXTT11=
EXTT12=
EXTT13=
EXTT14=
EXTT15=
PLAYORDER=
